HIERARCHY
ROOT Hips
{
	OFFSET 0.000000 87.230942 0.000000
	CHANNELS 6 Xposition Yposition Zposition Xrotation Yrotation Zrotation
	JOINT Pelvis
	{
		OFFSET 0.000000 0.000000 0.000000
		CHANNELS 3 Xrotation Yrotation Zrotation
		JOINT LeftUpLeg
		{
			OFFSET 12.017000 -9.376404 -2.439400
			CHANNELS 3 Xrotation Yrotation Zrotation
			JOINT LeftLeg
			{
				OFFSET -0.007312 -32.846973 2.110600
				CHANNELS 3 Xrotation Yrotation Zrotation
				JOINT LeftFoot
				{
					OFFSET 0.007312 -32.065170 -0.570400
					CHANNELS 3 Xrotation Yrotation Zrotation
					JOINT LeftToeBase
					{
						OFFSET 0.728300 -11.045900 13.180700
						CHANNELS 3 Xrotation Yrotation Zrotation
						End Site
						{
							OFFSET 0.000000 17.212589 0.000000
						}
					}
				}
				JOINT LeftPantLeg
				{
					OFFSET 0.002788 -16.709013 -3.143600
					CHANNELS 3 Xrotation Yrotation Zrotation
					End Site
					{
						OFFSET -0.605125 24.528742 0.000000
					}
				}
			}
			JOINT Left_Butt
			{
				OFFSET -6.630234 1.326584 -3.183700
				CHANNELS 3 Xrotation Yrotation Zrotation
				End Site
				{
					OFFSET -0.498041 20.188049 0.000000
				}
			}
		}
		JOINT RightUpLeg
		{
			OFFSET -11.717000 -9.376404 -2.439400
			CHANNELS 3 Xrotation Yrotation Zrotation
			JOINT RightLeg
			{
				OFFSET -0.003241 -32.846912 2.110600
				CHANNELS 3 Xrotation Yrotation Zrotation
				JOINT RightFoot
				{
					OFFSET 0.003241 -32.065136 -0.570500
					CHANNELS 3 Xrotation Yrotation Zrotation
					JOINT RightToeBase
					{
						OFFSET -0.728300 -11.045901 13.180700
						CHANNELS 3 Xrotation Yrotation Zrotation
						End Site
						{
							OFFSET 0.000000 17.212593 0.000000
						}
					}
				}
				JOINT RightPantLeg
				{
					OFFSET 0.008142 -16.708982 -3.143700
					CHANNELS 3 Xrotation Yrotation Zrotation
					End Site
					{
						OFFSET 0.605088 24.528715 0.000000
					}
				}
			}
			JOINT Right_Butt
			{
				OFFSET 6.630732 1.326584 -3.183700
				CHANNELS 3 Xrotation Yrotation Zrotation
				End Site
				{
					OFFSET 0.498015 20.188240 0.000000
				}
			}
		}
	}
	JOINT Spine
	{
		OFFSET -0.062400 7.848404 3.918300
		CHANNELS 3 Xrotation Yrotation Zrotation
		JOINT Spine1
		{
			OFFSET -0.072800 11.422302 0.713400
			CHANNELS 3 Xrotation Yrotation Zrotation
			JOINT Spine2
			{
				OFFSET -0.083200 13.054001 -1.931600
				CHANNELS 3 Xrotation Yrotation Zrotation
				JOINT Neck
				{
					OFFSET -0.092200 14.121796 -5.138800
					CHANNELS 3 Xrotation Yrotation Zrotation
					JOINT Head
					{
						OFFSET 0.000200 10.447403 -0.842000
						CHANNELS 3 Xrotation Yrotation Zrotation
						JOINT Visor
						{
							OFFSET 0.457100 25.671204 16.550400
							CHANNELS 3 Xrotation Yrotation Zrotation
							End Site
							{
								OFFSET 0.000000 26.061493 0.000000
							}
						}
						JOINT HairMidA
						{
							OFFSET 0.459400 31.585403 8.437400
							CHANNELS 3 Xrotation Yrotation Zrotation
							End Site
							{
								OFFSET 0.000000 26.061493 0.000000
							}
						}
						JOINT HairMidB
						{
							OFFSET 0.464000 33.309204 -8.389700
							CHANNELS 3 Xrotation Yrotation Zrotation
							End Site
							{
								OFFSET 0.000000 26.061493 0.000000
							}
						}
						JOINT HairMidC
						{
							OFFSET 0.466600 27.991196 -17.375099
							CHANNELS 3 Xrotation Yrotation Zrotation
							End Site
							{
								OFFSET 0.000000 26.061493 0.000000
							}
						}
						JOINT HairMidD
						{
							OFFSET 0.467700 17.888092 -21.169500
							CHANNELS 3 Xrotation Yrotation Zrotation
							End Site
							{
								OFFSET 0.000000 26.061493 0.000000
							}
						}
						JOINT HairMidE
						{
							OFFSET 5.325700 3.514603 -14.369699
							CHANNELS 3 Xrotation Yrotation Zrotation
							End Site
							{
								OFFSET 0.000000 26.061493 0.000000
							}
						}
						JOINT HairMidF
						{
							OFFSET -4.394100 3.514603 -14.372400
							CHANNELS 3 Xrotation Yrotation Zrotation
							End Site
							{
								OFFSET 0.000000 26.061493 0.000000
							}
						}
						JOINT HairLeftA
						{
							OFFSET 15.319900 25.746506 2.623300
							CHANNELS 3 Xrotation Yrotation Zrotation
							End Site
							{
								OFFSET 0.000000 26.061493 0.000000
							}
						}
						JOINT HairLeftB
						{
							OFFSET 12.619500 29.289398 -8.731499
							CHANNELS 3 Xrotation Yrotation Zrotation
							End Site
							{
								OFFSET 0.000000 26.061493 0.000000
							}
						}
						JOINT HairLeftC
						{
							OFFSET 15.714800 15.959900 2.909800
							CHANNELS 3 Xrotation Yrotation Zrotation
							End Site
							{
								OFFSET 0.000000 26.061493 0.000000
							}
						}
						JOINT HairLeftD
						{
							OFFSET 16.101700 18.437408 -7.553200
							CHANNELS 3 Xrotation Yrotation Zrotation
							End Site
							{
								OFFSET 0.000000 26.061493 0.000000
							}
						}
						JOINT HairLeftE
						{
							OFFSET 9.731900 17.915009 -18.316799
							CHANNELS 3 Xrotation Yrotation Zrotation
							End Site
							{
								OFFSET 0.000000 26.061493 0.000000
							}
						}
						JOINT HairLeftF
						{
							OFFSET 11.204300 4.953598 -9.668100
							CHANNELS 3 Xrotation Yrotation Zrotation
							End Site
							{
								OFFSET 0.000000 26.061493 0.000000
							}
						}
						JOINT HairRightA
						{
							OFFSET -14.397900 25.746307 2.615100
							CHANNELS 3 Xrotation Yrotation Zrotation
							End Site
							{
								OFFSET 0.000000 26.061493 0.000000
							}
						}
						JOINT HairRightB
						{
							OFFSET -11.691200 29.289200 -8.738199
							CHANNELS 3 Xrotation Yrotation Zrotation
							End Site
							{
								OFFSET 0.000000 26.061493 0.000000
							}
						}
						JOINT HairRightC
						{
							OFFSET -14.792900 15.959702 2.901400
							CHANNELS 3 Xrotation Yrotation Zrotation
							End Site
							{
								OFFSET 0.000000 26.061493 0.000000
							}
						}
						JOINT HairRightD
						{
							OFFSET -15.174000 18.437195 -7.561900
							CHANNELS 3 Xrotation Yrotation Zrotation
							End Site
							{
								OFFSET 0.000000 26.061493 0.000000
							}
						}
						JOINT HairRightE
						{
							OFFSET -8.798200 17.914902 -18.322001
							CHANNELS 3 Xrotation Yrotation Zrotation
							End Site
							{
								OFFSET 0.000000 26.061493 0.000000
							}
						}
						JOINT HairRightF
						{
							OFFSET -10.275200 4.953506 -9.674099
							CHANNELS 3 Xrotation Yrotation Zrotation
							End Site
							{
								OFFSET 0.000000 26.061493 0.000000
							}
						}
					}
				}
				JOINT LeftShoulder
				{
					OFFSET 5.133500 7.341202 -1.867600
					CHANNELS 3 Xrotation Yrotation Zrotation
					JOINT LeftArm
					{
						OFFSET 8.072663 0.936867 -2.176600
						CHANNELS 3 Xrotation Yrotation Zrotation
						JOINT LeftForeArm
						{
							OFFSET 31.271999 0.000000 0.000000
							CHANNELS 3 Xrotation Yrotation Zrotation
							JOINT LeftHand
							{
								OFFSET 31.771030 0.000000 0.000000
								CHANNELS 3 Xrotation Yrotation Zrotation
								JOINT LeftHandThumb1
								{
									OFFSET 2.886520 -2.557846 4.416640
									CHANNELS 3 Xrotation Yrotation Zrotation
									JOINT LeftHandThumb2
									{
										OFFSET 2.371025 -1.368912 1.368911
										CHANNELS 3 Xrotation Yrotation Zrotation
										JOINT LeftHandThumb3
										{
											OFFSET 2.243378 -1.295212 1.295213
											CHANNELS 3 Xrotation Yrotation Zrotation
											End Site
											{
												OFFSET -0.332611 2.876945 0.020015
											}
										}
									}
								}
								JOINT LeftHandIndex1
								{
									OFFSET 8.568985 -0.641945 3.119977
									CHANNELS 3 Xrotation Yrotation Zrotation
									JOINT LeftHandIndex2
									{
										OFFSET 3.348503 0.000000 0.000000
										CHANNELS 3 Xrotation Yrotation Zrotation
										JOINT LeftHandIndex3
										{
											OFFSET 3.314552 0.000000 0.000000
											CHANNELS 3 Xrotation Yrotation Zrotation
											End Site
											{
												OFFSET -1.032898 3.075485 0.678796
											}
										}
									}
								}
								JOINT LeftHandMiddle1
								{
									OFFSET 8.124603 0.000000 0.000000
									CHANNELS 3 Xrotation Yrotation Zrotation
									JOINT LeftHandMiddle2
									{
										OFFSET 4.166275 0.000000 0.000000
										CHANNELS 3 Xrotation Yrotation Zrotation
										JOINT LeftHandMiddle3
										{
											OFFSET 3.018135 0.000000 0.000000
											CHANNELS 3 Xrotation Yrotation Zrotation
											End Site
											{
												OFFSET -1.032700 2.767982 0.617226
											}
										}
									}
								}
								JOINT LeftHandRing1
								{
									OFFSET 8.571686 -0.031357 -2.884048
									CHANNELS 3 Xrotation Yrotation Zrotation
									JOINT LeftHandRing2
									{
										OFFSET 3.671181 0.000000 0.000000
										CHANNELS 3 Xrotation Yrotation Zrotation
										JOINT LeftHandRing3
										{
											OFFSET 2.728851 0.000000 0.000000
											CHANNELS 3 Xrotation Yrotation Zrotation
											End Site
											{
												OFFSET -0.815796 2.539223 0.577389
											}
										}
									}
								}
								JOINT LeftHandPinky1
								{
									OFFSET 7.854515 -0.675232 -5.213020
									CHANNELS 3 Xrotation Yrotation Zrotation
									JOINT LeftHandPinky2
									{
										OFFSET 3.068596 0.000000 0.000000
										CHANNELS 3 Xrotation Yrotation Zrotation
										JOINT LeftHandPinky3
										{
											OFFSET 2.396042 0.000000 0.000000
											CHANNELS 3 Xrotation Yrotation Zrotation
											End Site
											{
												OFFSET -0.524597 2.267998 0.567429
											}
										}
									}
								}
							}
							JOINT LeftSleeve
							{
								OFFSET 19.684509 -0.200119 0.476146
								CHANNELS 3 Xrotation Yrotation Zrotation
								End Site
								{
									OFFSET -0.031017 25.731133 -0.002868
								}
							}
						}
					}
				}
				JOINT RightShoulder
				{
					OFFSET -4.395900 7.341202 -1.870200
					CHANNELS 3 Xrotation Yrotation Zrotation
					JOINT RightArm
					{
						OFFSET -8.071453 0.936867 -2.181100
						CHANNELS 3 Xrotation Yrotation Zrotation
						JOINT RightForeArm
						{
							OFFSET -31.272011 0.000000 0.000000
							CHANNELS 3 Xrotation Yrotation Zrotation
							JOINT RightHand
							{
								OFFSET -31.771019 0.000000 0.000000
								CHANNELS 3 Xrotation Yrotation Zrotation
								JOINT RightHandThumb1
								{
									OFFSET -2.886520 -2.557808 4.416626
									CHANNELS 3 Xrotation Yrotation Zrotation
									JOINT RightHandThumb2
									{
										OFFSET -2.371056 -1.368927 1.368928
										CHANNELS 3 Xrotation Yrotation Zrotation
										JOINT RightHandThumb3
										{
											OFFSET -2.243362 -1.295204 1.295206
											CHANNELS 3 Xrotation Yrotation Zrotation
											End Site
											{
												OFFSET 0.332642 2.876938 0.020047
											}
										}
									}
								}
								JOINT RightHandIndex1
								{
									OFFSET -8.568993 -0.641953 3.120017
									CHANNELS 3 Xrotation Yrotation Zrotation
									JOINT RightHandIndex2
									{
										OFFSET -3.348518 0.000000 0.000000
										CHANNELS 3 Xrotation Yrotation Zrotation
										JOINT RightHandIndex3
										{
											OFFSET -3.314552 0.000000 0.000000
											CHANNELS 3 Xrotation Yrotation Zrotation
											End Site
											{
												OFFSET 1.032898 3.075478 0.678804
											}
										}
									}
								}
								JOINT RightHandMiddle1
								{
									OFFSET -8.124588 0.000000 0.000000
									CHANNELS 3 Xrotation Yrotation Zrotation
									JOINT RightHandMiddle2
									{
										OFFSET -4.166275 0.000000 0.000000
										CHANNELS 3 Xrotation Yrotation Zrotation
										JOINT RightHandMiddle3
										{
											OFFSET -3.018097 0.000000 0.000000
											CHANNELS 3 Xrotation Yrotation Zrotation
											End Site
											{
												OFFSET 1.032700 2.767937 0.617197
											}
										}
									}
								}
								JOINT RightHandRing1
								{
									OFFSET -8.571747 -0.031349 -2.884061
									CHANNELS 3 Xrotation Yrotation Zrotation
									JOINT RightHandRing2
									{
										OFFSET -3.671204 0.000000 0.000000
										CHANNELS 3 Xrotation Yrotation Zrotation
										JOINT RightHandRing3
										{
											OFFSET -2.728874 0.000000 0.000000
											CHANNELS 3 Xrotation Yrotation Zrotation
											End Site
											{
												OFFSET 0.815804 2.539261 0.577413
											}
										}
									}
								}
								JOINT RightHandPinky1
								{
									OFFSET -7.854561 -0.675247 -5.212970
									CHANNELS 3 Xrotation Yrotation Zrotation
									JOINT RightHandPinky2
									{
										OFFSET -3.068550 0.000000 0.000000
										CHANNELS 3 Xrotation Yrotation Zrotation
										JOINT RightHandPinky3
										{
											OFFSET -2.395981 0.000000 0.000000
											CHANNELS 3 Xrotation Yrotation Zrotation
											End Site
											{
												OFFSET 0.524605 2.267952 0.567413
											}
										}
									}
								}
							}
							JOINT RightSleeve
							{
								OFFSET -19.684753 -0.200165 0.476065
								CHANNELS 3 Xrotation Yrotation Zrotation
								End Site
								{
									OFFSET 0.031342 25.731255 -0.002917
								}
							}
						}
					}
				}
				JOINT Hood
				{
					OFFSET 0.369700 14.447800 -5.317800
					CHANNELS 3 Xrotation Yrotation Zrotation
					JOINT Hood1
					{
						OFFSET 0.001700 -5.553802 -5.895100
						CHANNELS 3 Xrotation Yrotation Zrotation
						JOINT Hood2
						{
							OFFSET -0.000200 -8.380501 0.763600
							CHANNELS 3 Xrotation Yrotation Zrotation
							End Site
							{
								OFFSET 0.000000 8.415215 0.000000
							}
						}
					}
				}
				JOINT Left_Breast
				{
					OFFSET 5.682500 3.120102 3.188800
					CHANNELS 3 Xrotation Yrotation Zrotation
					End Site
					{
						OFFSET 0.000000 10.528564 0.000000
					}
				}
				JOINT Right_Breast
				{
					OFFSET -4.947600 3.120102 3.185900
					CHANNELS 3 Xrotation Yrotation Zrotation
					End Site
					{
						OFFSET 0.000000 10.528564 0.000000
					}
				}
				JOINT Whistle
				{
					OFFSET 0.368200 11.471298 0.095400
					CHANNELS 3 Xrotation Yrotation Zrotation
					JOINT Whistle1
					{
						OFFSET -0.002000 -6.349899 7.479800
						CHANNELS 3 Xrotation Yrotation Zrotation
						JOINT Whistle2
						{
							OFFSET -0.001300 -8.217598 4.717600
							CHANNELS 3 Xrotation Yrotation Zrotation
							End Site
							{
								OFFSET 0.000000 9.475479 0.000000
							}
						}
					}
				}
			}
		}
		JOINT Belly
		{
			OFFSET 0.212400 1.593002 3.163700
			CHANNELS 3 Xrotation Yrotation Zrotation
			End Site
			{
				OFFSET 0.000000 7.496635 0.000000
			}
		}
	}
	JOINT FitGrandmaFacialAnim_Joint
	{
		OFFSET 1.150000 -86.211197 -1.220100
		CHANNELS 3 Xrotation Yrotation Zrotation
		End Site
		{
			OFFSET 0.000000 31.666618 0.000000
		}
	}
}
MOTION
Frames: 4
Frame Time: 0.016667
13.165392 78.528748 -21.988770 155.521058 -33.106938 160.727848 0.000001 -0.000001 0.000000 -15.834974 36.488899 20.324666 25.707922 22.036183 -0.559718 -16.348616 13.507853 -29.451366 -0.000000 -0.000000 -0.000000 -0.000000 0.000000 -0.000002 -0.000000 -0.000000 0.000002 -56.675564 19.004827 11.213466 36.762288 -0.062492 2.736284 -5.803242 -6.167721 4.952459 0.000000 -0.000002 -0.000000 -0.000000 -0.000003 0.000000 -0.000001 0.000001 0.000000 36.396220 3.233253 8.885705 -9.351839 -3.570432 1.181060 -9.435590 -2.352110 2.017856 -12.226139 -7.455020 -5.693959 -19.356836 -12.917814 9.381448 0.000000 0.000001 -0.000000 0.000000 0.000001 -0.000000 0.000000 0.000001 -0.000000 0.000000 0.000001 -0.000000 0.000000 0.000001 -0.000000 0.000000 0.000001 -0.000000 0.000000 0.000001 -0.000000 0.000000 0.000001 -0.000000 0.000000 0.000001 -0.000000 0.000000 0.000001 -0.000000 0.000000 0.000001 -0.000000 0.000000 0.000001 -0.000000 0.000000 0.000001 -0.000000 0.000000 0.000001 -0.000000 0.000000 0.000001 -0.000000 0.000000 0.000001 -0.000000 0.000000 0.000001 -0.000000 0.000000 0.000001 -0.000000 0.000000 0.000001 -0.000000 5.744833 -10.522761 24.025844 -67.510594 -3.722626 -45.267987 1.348487 -68.597646 4.203015 -49.957312 9.172189 6.229524 17.551604 -5.699236 -12.932299 10.850485 26.127767 8.644853 -0.000001 -0.000000 0.000001 13.980891 1.201495 -55.004347 0.370811 1.161700 -65.441893 0.000002 -0.000000 0.000001 7.504728 1.174455 -63.778496 1.807818 1.475674 -64.567984 -0.000001 -0.000000 -0.000001 8.574356 2.179117 -75.148979 -0.207640 1.009296 -57.855063 0.000000 -0.000000 0.000002 10.030080 13.637091 -84.750237 0.877094 0.062276 -64.595476 -0.000001 -0.000000 -0.000002 0.000003 -0.000001 0.000001 8.424594 8.375892 -5.507274 -1.238765 1.267737 68.329185 13.833011 26.209131 -4.662782 1.309577 4.198885 -0.028693 18.220810 -5.165865 -16.100672 -6.245515 -30.512521 3.865909 0.000002 0.000001 0.000000 8.324401 -2.978349 13.360779 -2.420660 -1.364241 30.156487 -0.000001 -0.000001 0.000001 -0.657852 -4.404958 22.423723 0.269040 -5.521316 37.097254 -0.000000 0.000000 0.000002 -4.177281 -8.849783 22.910732 4.057603 -1.935995 44.316658 -0.000000 0.000000 -0.000003 -16.086299 -11.774076 19.303187 10.677797 -2.614196 41.806314 -0.000001 0.000003 -0.000003 -0.000002 -0.000001 -0.000001 0.000002 0.000000 -0.000000 0.000002 0.000000 -0.000000 0.000002 0.000000 -0.000000 0.000002 0.000000 -0.000000 0.000002 0.000000 -0.000000 0.000002 0.000000 0.000001 -0.000002 -0.000002 0.000001 -0.000002 -0.000002 0.000001 -0.000001 -0.000001 0.000003 0.000001 -0.000001 0.000000 
13.128401 78.623787 -22.031322 155.674068 -33.301714 160.901662 -0.000000 0.000002 -0.000001 -15.044038 36.447495 19.809318 24.888962 22.162031 -0.501470 -16.007228 13.449599 -29.340929 0.000000 0.000000 0.000000 -0.000000 -0.000001 -0.000003 0.000000 -0.000001 0.000001 -56.243896 18.871458 10.963057 36.667884 -0.026327 2.735142 -5.866172 -6.056745 4.872213 0.000000 -0.000002 -0.000000 -0.000000 -0.000000 -0.000000 -0.000000 -0.000001 -0.000002 36.355362 3.267435 8.932030 -9.302407 -3.573407 1.240607 -9.386075 -2.346659 2.077845 -12.663934 -9.245403 -5.425657 -18.143122 -14.473890 9.482516 0.000000 0.000001 -0.000000 0.000000 0.000001 -0.000000 0.000000 0.000001 -0.000000 0.000000 0.000001 -0.000000 0.000000 0.000001 -0.000000 0.000000 0.000001 -0.000000 0.000000 0.000001 -0.000000 0.000000 0.000001 -0.000000 0.000000 0.000001 -0.000000 0.000000 0.000001 -0.000000 0.000000 0.000001 -0.000000 0.000000 0.000001 -0.000000 0.000000 0.000001 -0.000000 0.000000 0.000001 -0.000000 0.000000 0.000001 -0.000000 0.000000 0.000001 -0.000000 0.000000 0.000001 -0.000000 0.000000 0.000001 -0.000000 0.000000 0.000001 -0.000000 5.600717 -10.392682 23.545699 -67.435038 -3.677390 -45.248142 1.632195 -68.445271 4.470464 -49.937118 9.068405 6.209535 17.551604 -5.699238 -12.932298 10.850484 26.127765 8.644853 -0.000005 0.000003 0.000001 13.980892 1.201494 -55.004350 0.370811 1.161701 -65.441893 0.000001 0.000000 -0.000003 7.504725 1.174457 -63.778496 1.807817 1.475671 -64.567984 -0.000001 0.000000 -0.000001 8.574354 2.179119 -75.148979 -0.207643 1.009294 -57.855063 0.000001 -0.000000 0.000002 10.030078 13.637092 -84.750237 0.877090 0.062275 -64.595483 -0.000002 -0.000001 0.000001 0.000002 -0.000001 0.000002 8.387675 8.109944 -5.631587 -1.325121 1.460303 68.468330 13.559665 26.271827 -4.380973 1.637682 4.236958 0.170620 18.207635 -5.153469 -16.107070 -6.281839 -30.420730 3.877054 -0.000001 -0.000003 -0.000001 8.217445 -2.911579 13.348507 -2.416329 -1.394020 30.239880 -0.000002 -0.000001 0.000003 -0.797127 -4.366867 22.488055 0.278301 -5.517111 37.121709 0.000002 0.000000 -0.000002 -4.248845 -8.728397 23.054453 4.015920 -2.019630 44.438908 0.000003 -0.000002 -0.000001 -16.404429 -11.839668 19.617949 10.678527 -2.615760 41.769779 -0.000003 -0.000003 0.000003 -0.000001 -0.000002 -0.000001 -0.000001 0.000001 -0.000001 -0.000001 0.000001 -0.000001 -0.000001 0.000001 -0.000001 -0.000001 0.000001 -0.000001 -0.000001 0.000001 -0.000001 -0.000001 0.000001 0.000000 -0.000000 -0.000001 0.000001 -0.000000 -0.000001 0.000001 -0.000003 0.000001 0.000001 -0.000000 0.000002 -0.000001 
13.101025 78.708351 -22.060789 155.801642 -33.488315 161.087717 0.000001 0.000003 -0.000000 -14.299824 36.391016 19.279998 24.129228 22.280176 -0.448021 -15.692517 13.405161 -29.221260 0.000000 0.000001 -0.000000 -0.000001 -0.000001 -0.000001 0.000001 -0.000002 0.000002 -55.865408 18.724933 10.726264 36.661389 -1.121696 2.643336 -5.903023 -4.813890 4.976105 0.000000 0.000000 -0.000000 0.000001 0.000003 -0.000000 -0.000000 0.000001 0.000002 36.282641 3.291975 8.977844 -9.262704 -3.564027 1.268312 -9.346580 -2.337914 2.102955 -12.950605 -10.349946 -5.301796 -17.398326 -15.412057 9.443616 -0.000000 0.000000 -0.000000 -0.000000 0.000000 -0.000000 -0.000000 0.000000 -0.000000 -0.000000 0.000000 -0.000000 -0.000000 0.000000 -0.000000 -0.000000 0.000000 -0.000000 -0.000000 0.000000 -0.000000 -0.000000 0.000000 -0.000000 -0.000000 0.000000 -0.000000 -0.000000 0.000000 -0.000000 -0.000000 0.000000 -0.000000 -0.000000 0.000000 -0.000000 -0.000000 0.000000 -0.000000 -0.000000 0.000000 -0.000000 -0.000000 0.000000 -0.000000 -0.000000 0.000000 -0.000000 -0.000000 0.000000 -0.000000 -0.000000 0.000000 -0.000000 -0.000000 0.000000 -0.000000 5.455862 -10.276586 23.062287 -67.354510 -3.637414 -45.228072 1.900019 -68.291708 4.723979 -49.919670 8.973225 6.196777 17.551607 -5.699237 -12.932302 10.850480 26.127762 8.644853 -0.000002 0.000002 -0.000000 13.980893 1.201495 -55.004353 0.370810 1.161699 -65.441900 0.000000 -0.000002 0.000000 7.504728 1.174454 -63.778503 1.807819 1.475673 -64.567984 -0.000002 -0.000002 0.000000 8.574356 2.179117 -75.148992 -0.207638 1.009294 -57.855063 -0.000000 0.000000 0.000002 10.030079 13.637094 -84.750244 0.877091 0.062274 -64.595476 -0.000001 0.000000 0.000001 0.000002 0.000000 -0.000002 8.353437 7.968175 -5.710313 -1.302530 1.649692 68.639255 13.413284 26.330432 -4.243882 1.725144 4.280983 0.377629 18.194494 -5.141177 -16.113451 -6.316194 -30.331603 3.889145 0.000001 -0.000002 0.000000 8.114769 -2.847549 13.337020 -2.411869 -1.422826 30.319886 0.000002 -0.000001 0.000003 -0.930829 -4.330629 22.550015 0.287456 -5.512975 37.145151 -0.000000 0.000003 -0.000001 -4.318075 -8.612274 23.192549 3.976677 -2.100082 44.556213 0.000001 -0.000004 -0.000001 -16.709556 -11.906605 19.920006 10.679279 -2.617326 41.733170 -0.000003 0.000003 -0.000000 -0.000001 -0.000001 -0.000000 -0.000004 0.000000 0.000000 -0.000004 0.000000 0.000000 -0.000004 0.000000 0.000000 -0.000004 0.000000 0.000000 -0.000004 0.000000 0.000000 -0.000004 0.000000 -0.000001 -0.000006 -0.000001 -0.000000 -0.000006 -0.000001 -0.000000 0.000001 0.000001 0.000000 0.000001 0.000003 -0.000000 
13.078064 78.787888 -22.084286 155.918001 -33.671480 161.279604 -0.000001 -0.000001 -0.000000 -13.575055 36.325511 18.744271 23.391156 22.395456 -0.396288 -15.388406 13.365441 -29.095489 0.000000 -0.000001 0.000000 -0.000001 0.000001 0.000003 0.000000 0.000002 0.000001 -55.511939 18.585566 10.436305 36.608694 -0.926201 2.657582 -5.958960 -4.821391 4.884876 -0.000000 -0.000001 -0.000000 -0.000001 -0.000000 0.000001 -0.000001 -0.000002 -0.000002 36.195754 3.312890 9.022688 -9.227461 -3.548991 1.281479 -9.311686 -2.327705 2.112162 -13.170373 -11.140845 -5.245221 -16.873789 -16.069922 9.340675 0.000000 -0.000000 -0.000000 0.000000 -0.000000 -0.000000 0.000000 -0.000000 -0.000000 0.000000 -0.000000 -0.000000 0.000000 -0.000000 -0.000000 0.000000 -0.000000 -0.000000 0.000000 -0.000000 -0.000000 0.000000 -0.000000 -0.000000 0.000000 -0.000000 -0.000000 0.000000 -0.000000 -0.000000 0.000000 -0.000000 -0.000000 0.000000 -0.000000 -0.000000 0.000000 -0.000000 -0.000000 0.000000 -0.000000 -0.000000 0.000000 -0.000000 -0.000000 0.000000 -0.000000 -0.000000 0.000000 -0.000000 -0.000000 0.000000 -0.000000 -0.000000 0.000000 -0.000000 -0.000000 5.312893 -10.162605 22.584270 -67.274003 -3.603510 -45.213851 2.101633 -68.140433 4.908443 -49.904374 8.881494 6.194723 17.551605 -5.699238 -12.932299 10.850487 26.127763 8.644853 -0.000003 0.000003 -0.000000 13.980894 1.201493 -55.004353 0.370813 1.161698 -65.441900 0.000002 -0.000002 0.000002 7.504728 1.174456 -63.778503 1.807814 1.475671 -64.567978 -0.000001 0.000000 -0.000003 8.574354 2.179118 -75.148992 -0.207640 1.009292 -57.855063 0.000000 0.000002 -0.000003 10.030081 13.637093 -84.750244 0.877092 0.062272 -64.595476 -0.000000 -0.000001 0.000003 0.000002 -0.000000 0.000003 8.320676 7.882595 -5.768233 -1.231539 1.837840 68.823998 13.324714 26.387480 -4.172543 1.703419 4.326797 0.587465 18.181269 -5.128781 -16.119870 -6.348273 -30.245532 3.902234 -0.000000 -0.000002 -0.000001 8.016903 -2.786400 13.326239 -2.407369 -1.450655 30.396220 0.000000 -0.000002 0.000004 -1.058383 -4.296380 22.609343 0.296492 -5.508841 37.167598 0.000005 -0.000002 0.000004 -4.384631 -8.501922 23.324295 3.940072 -2.176941 44.668102 0.000002 0.000001 -0.000002 -17.000378 -11.974069 20.207997 10.680037 -2.618836 41.696550 -0.000003 -0.000001 -0.000001 -0.000000 -0.000001 -0.000001 0.000001 -0.000001 0.000001 0.000001 -0.000001 0.000001 0.000001 -0.000001 0.000001 0.000001 -0.000001 0.000001 0.000001 -0.000001 0.000001 0.000001 -0.000001 -0.000000 -0.000001 -0.000001 -0.000000 -0.000001 -0.000001 -0.000000 -0.000003 0.000001 -0.000001 -0.000001 -0.000001 -0.000000 
